name ./resultDataOpenSim/trcMotMarkerGrf/sub10/grf-01-01.mot
datacolumns 19
datarows 22
range 0.47600000 0.56000000
endheader

                time	     ground_force_vx	     ground_force_vy	     ground_force_vz	     ground_force_px	     ground_force_py	     ground_force_pz	   l_ground_force_vx	   l_ground_force_vy	   l_ground_force_vz	   l_ground_force_px	   l_ground_force_py	   l_ground_force_pz	     ground_torque_x	     ground_torque_y	     ground_torque_z	   l_ground_torque_x	   l_ground_torque_y	   l_ground_torque_z	
          0.47600000	         38.06189375	        521.45325037	        -17.43350182	         -0.78638875	          0.00000000	         -0.01900711	          0.00000000	          0.00000000	          0.00000000	          0.00000000	          0.00000000	          0.00000000	          0.00000000	          4.50069785	          0.00000000	          0.00000000	          0.00000000	          0.00000000	
          0.48000000	         40.92403048	        524.16994998	        -17.99114017	         -0.78508997	          0.00000000	         -0.01906028	          0.00000000	          0.00000000	          0.00000000	          0.00000000	          0.00000000	          0.00000000	          0.00000000	          4.63115780	          0.00000000	          0.00000000	          0.00000000	          0.00000000	
          0.48400000	         44.08986295	        527.20290612	        -18.07782259	         -0.78370142	          0.00000000	         -0.01910672	          0.00000000	          0.00000000	          0.00000000	          0.00000000	          0.00000000	          0.00000000	          0.00000000	          4.80473911	          0.00000000	          0.00000000	          0.00000000	          0.00000000	
          0.48800000	         47.30991557	        530.61051661	        -17.86816137	         -0.78217713	          0.00000000	         -0.01915203	          0.00000000	          0.00000000	          0.00000000	          0.00000000	          0.00000000	          0.00000000	          0.00000000	          5.00203294	          0.00000000	          0.00000000	          0.00000000	          0.00000000	
          0.49200000	         50.29246538	        534.41756885	        -17.61964219	         -0.78047991	          0.00000000	         -0.01919655	          0.00000000	          0.00000000	          0.00000000	          0.00000000	          0.00000000	          0.00000000	          0.00000000	          5.19624182	          0.00000000	          0.00000000	          0.00000000	          0.00000000	
          0.49600000	         52.77964908	        538.61948011	        -17.61194719	         -0.77857798	          0.00000000	         -0.01922977	          0.00000000	          0.00000000	          0.00000000	          0.00000000	          0.00000000	          0.00000000	          0.00000000	          5.35902693	          0.00000000	          0.00000000	          0.00000000	          0.00000000	
          0.50000000	         54.61338064	        543.19520389	        -18.07975950	         -0.77645420	          0.00000000	         -0.01923881	          0.00000000	          0.00000000	          0.00000000	          0.00000000	          0.00000000	          0.00000000	          0.00000000	          5.46641949	          0.00000000	          0.00000000	          0.00000000	          0.00000000	
          0.50400000	         55.76912624	        548.11071167	        -19.15738324	         -0.77409363	          0.00000000	         -0.01921740	          0.00000000	          0.00000000	          0.00000000	          0.00000000	          0.00000000	          0.00000000	          0.00000000	          5.50371089	          0.00000000	          0.00000000	          0.00000000	          0.00000000	
          0.50800000	         56.34730013	        553.32158228	        -20.84830895	         -0.77150558	          0.00000000	         -0.01916837	          0.00000000	          0.00000000	          0.00000000	          0.00000000	          0.00000000	          0.00000000	          0.00000000	          5.46846193	          0.00000000	          0.00000000	          0.00000000	          0.00000000	
          0.51200000	         56.52867257	        558.77831523	        -23.02416948	         -0.76870720	          0.00000000	         -0.01909682	          0.00000000	          0.00000000	          0.00000000	          0.00000000	          0.00000000	          0.00000000	          0.00000000	          5.37100379	          0.00000000	          0.00000000	          0.00000000	          0.00000000	
          0.51600000	         56.51291085	        564.43183730	        -25.45171158	         -0.76571621	          0.00000000	         -0.01900977	          0.00000000	          0.00000000	          0.00000000	          0.00000000	          0.00000000	          0.00000000	          0.00000000	          5.23221676	          0.00000000	          0.00000000	          0.00000000	          0.00000000	
          0.52000000	         56.46187455	        570.24588361	        -27.84037842	         -0.76254774	          0.00000000	         -0.01891867	          0.00000000	          0.00000000	          0.00000000	          0.00000000	          0.00000000	          0.00000000	          0.00000000	          5.07896423	          0.00000000	          0.00000000	          0.00000000	          0.00000000	
          0.52400000	         56.46150778	        576.21508317	        -29.89853519	         -0.75921762	          0.00000000	         -0.01884083	          0.00000000	          0.00000000	          0.00000000	          0.00000000	          0.00000000	          0.00000000	          0.00000000	          4.93819462	          0.00000000	          0.00000000	          0.00000000	          0.00000000	
          0.52800000	         56.50879388	        582.37465366	        -31.38882193	         -0.75573221	          0.00000000	         -0.01879172	          0.00000000	          0.00000000	          0.00000000	          0.00000000	          0.00000000	          0.00000000	          0.00000000	          4.83116837	          0.00000000	          0.00000000	          0.00000000	          0.00000000	
          0.53200000	         56.52799488	        588.79329029	        -32.17480986	         -0.75208848	          0.00000000	         -0.01878485	          0.00000000	          0.00000000	          0.00000000	          0.00000000	          0.00000000	          0.00000000	          0.00000000	          4.76924425	          0.00000000	          0.00000000	          0.00000000	          0.00000000	
          0.53600000	         56.41444347	        595.55453024	        -32.24830874	         -0.74829418	          0.00000000	         -0.01882917	          0.00000000	          0.00000000	          0.00000000	          0.00000000	          0.00000000	          0.00000000	          0.00000000	          4.75213188	          0.00000000	          0.00000000	          0.00000000	          0.00000000	
          0.54000000	         56.09098427	        602.73653138	        -31.72864425	         -0.74437739	          0.00000000	         -0.01892835	          0.00000000	          0.00000000	          0.00000000	          0.00000000	          0.00000000	          0.00000000	          0.00000000	          4.76875809	          0.00000000	          0.00000000	          0.00000000	          0.00000000	
          0.54400000	         55.55547706	        610.39396690	        -30.83339859	         -0.74037302	          0.00000000	         -0.01908024	          0.00000000	          0.00000000	          0.00000000	          0.00000000	          0.00000000	          0.00000000	          0.00000000	          4.80025750	          0.00000000	          0.00000000	          0.00000000	          0.00000000	
          0.54800000	         54.90316135	        618.54718057	        -29.82861317	         -0.73631627	          0.00000000	         -0.01927734	          0.00000000	          0.00000000	          0.00000000	          0.00000000	          0.00000000	          0.00000000	          0.00000000	          4.82427458	          0.00000000	          0.00000000	          0.00000000	          0.00000000	
          0.55200000	         54.31601538	        627.18695122	        -28.97180188	         -0.73224443	          0.00000000	         -0.01950718	          0.00000000	          0.00000000	          0.00000000	          0.00000000	          0.00000000	          0.00000000	          0.00000000	          4.81971104	          0.00000000	          0.00000000	          0.00000000	          0.00000000	
          0.55600000	         54.02195970	        636.28643146	        -28.46092202	         -0.72819710	          0.00000000	         -0.01975335	          0.00000000	          0.00000000	          0.00000000	          0.00000000	          0.00000000	          0.00000000	          0.00000000	          4.77110516	          0.00000000	          0.00000000	          0.00000000	          0.00000000	
          0.56000000	         54.23754828	        645.80290826	        -28.39772447	         -0.72421324	          0.00000000	         -0.02000101	          0.00000000	          0.00000000	          0.00000000	          0.00000000	          0.00000000	          0.00000000	          0.00000000	          4.67188465	          0.00000000	          0.00000000	          0.00000000	          0.00000000	
